<svg id="visual" viewBox="0 0 900 600" width="900" height="600" xmlns="http://www.w3.org/2000/svg" xmlns:xlink="http://www.w3.org/1999/xlink" version="1.1"><path d="M0 101L21.5 97.3C43 93.7 86 86.3 128.8 79.5C171.7 72.7 214.3 66.3 257.2 64.7C300 63 343 66 385.8 62.5C428.7 59 471.3 49 514.2 44.8C557 40.7 600 42.3 642.8 52C685.7 61.7 728.3 79.3 771.2 85.3C814 91.3 857 85.7 878.5 82.8L900 80L900 0L878.5 0C857 0 814 0 771.2 0C728.3 0 685.7 0 642.8 0C600 0 557 0 514.2 0C471.3 0 428.7 0 385.8 0C343 0 300 0 257.2 0C214.3 0 171.7 0 128.8 0C86 0 43 0 21.5 0L0 0Z" fill="#903749" stroke-linecap="round" stroke-linejoin="miter"></path></svg>